<svg width="100" height="100" viewBox="0 0 100 100" fill="none" xmlns="http://www.w3.org/2000/svg">
<path d="M100 50C100 22.3828 77.6172 0 50 0C22.3828 0 0 22.3828 0 50C0 77.6172 22.3828 100 50 100C50.293 100 50.5859 100 50.8789 99.9805V61.0742H40.1367V48.5547H50.8789V39.3359C50.8789 28.6523 57.4023 22.832 66.9336 22.832C71.5039 22.832 75.4297 23.1641 76.5625 23.3203V34.4922H70C64.8242 34.4922 63.8086 36.9531 63.8086 40.5664V48.5352H76.2109L74.5898 61.0547H63.8086V98.0664C84.707 92.0703 100 72.832 100 50Z" fill="#E02395"/>
</svg>
