<svg width="100" height="100" viewBox="0 0 100 100" fill="none" xmlns="http://www.w3.org/2000/svg">
<g clip-path="url(#clip0)">
<path d="M99.9022 29.4003C99.6679 24.0869 98.8087 20.434 97.5778 17.2687C96.308 13.9088 94.3545 10.9007 91.7951 8.40008C89.2945 5.86052 86.2665 3.88717 82.9456 2.63723C79.762 1.40637 76.1281 0.547134 70.8148 0.312866C65.4617 0.0587578 63.7623 0 50.1854 0C36.6086 0 34.9092 0.0587578 29.5759 0.293026C24.2625 0.527294 20.6096 1.3873 17.4451 2.61739C14.0845 3.88717 11.0764 5.84068 8.57574 8.40008C6.03618 10.9007 4.06359 13.9287 2.81289 17.2496C1.58203 20.434 0.722794 24.0671 0.488525 29.3804C0.234417 34.7335 0.175659 36.4329 0.175659 50.0098C0.175659 63.5866 0.234417 65.286 0.468685 70.6193C0.702953 75.9327 1.56295 79.5856 2.79382 82.7509C4.06359 86.1107 6.03618 89.1188 8.57574 91.6195C11.0764 94.159 14.1043 96.1324 17.4253 97.3823C20.6096 98.6132 24.2427 99.4724 29.5569 99.7067C34.8893 99.9417 36.5895 99.9997 50.1663 99.9997C63.7432 99.9997 65.4426 99.9417 70.7758 99.7067C76.0892 99.4724 79.7421 98.6132 82.9067 97.3823C89.6272 94.784 94.9406 89.4706 97.5389 82.7509C98.769 79.5665 99.629 75.9327 99.8633 70.6193C100.098 65.286 100.156 63.5866 100.156 50.0098C100.156 36.4329 100.136 34.7335 99.9022 29.4003ZM90.897 70.2286C90.6818 75.1123 89.8615 77.7496 89.1777 79.5077C87.4974 83.8642 84.0398 87.3218 79.6834 89.0021C77.9252 89.6858 75.2689 90.5061 70.4042 90.7206C65.1297 90.9556 63.5479 91.0136 50.2053 91.0136C36.8627 91.0136 35.2609 90.9556 30.0056 90.7206C25.1218 90.5061 22.4846 89.6858 20.7264 89.0021C18.5585 88.2008 16.5851 86.9311 14.9834 85.2706C13.3229 83.649 12.0531 81.6955 11.2519 79.5276C10.5682 77.7694 9.74784 75.1123 9.53341 70.2484C9.29838 64.9739 9.24039 63.3913 9.24039 50.0487C9.24039 36.7061 9.29838 35.1044 9.53341 29.8497C9.74784 24.966 10.5682 22.3287 11.2519 20.5706C12.0531 18.4019 13.3229 16.4293 15.0032 14.8268C16.624 13.1663 18.5775 11.8966 20.7462 11.0961C22.5044 10.4123 25.1615 9.59202 30.0254 9.37683C35.2999 9.14256 36.8825 9.08381 50.2243 9.08381C63.5868 9.08381 65.1687 9.14256 70.4241 9.37683C75.3078 9.59202 77.9451 10.4123 79.7032 11.0961C81.8711 11.8966 83.8445 13.1663 85.4462 14.8268C87.1067 16.4484 88.3765 18.4019 89.1777 20.5706C89.8615 22.3287 90.6818 24.985 90.897 29.8497C91.1312 35.1242 91.19 36.7061 91.19 50.0487C91.19 63.3913 91.1312 64.9541 90.897 70.2286Z" fill="#E02395"/>
<path d="M50.1854 24.3212C36.0034 24.3212 24.4968 35.827 24.4968 50.0098C24.4968 64.1925 36.0034 75.6984 50.1854 75.6984C64.3682 75.6984 75.874 64.1925 75.874 50.0098C75.874 35.827 64.3682 24.3212 50.1854 24.3212ZM50.1854 66.6733C40.9849 66.6733 33.5219 59.2111 33.5219 50.0098C33.5219 40.8085 40.9849 33.3462 50.1854 33.3462C59.3867 33.3462 66.849 40.8085 66.849 50.0098C66.849 59.2111 59.3867 66.6733 50.1854 66.6733Z" fill="#E02395"/>
<path d="M82.8876 23.3055C82.8876 26.6173 80.2023 29.3026 76.8897 29.3026C73.5779 29.3026 70.8926 26.6173 70.8926 23.3055C70.8926 19.9929 73.5779 17.3083 76.8897 17.3083C80.2023 17.3083 82.8876 19.9929 82.8876 23.3055Z" fill="#E02395"/>
</g>
<defs>
<clipPath id="clip0">
<rect width="100" height="100" fill="white"/>
</clipPath>
</defs>
</svg>
