<svg width="100" height="100" viewBox="0 0 100 100" fill="none" xmlns="http://www.w3.org/2000/svg">
<path d="M100 11.8385C96.2812 13.8462 92.3187 15.1769 88.1875 15.8231C92.4375 12.7 95.6813 7.79231 97.2063 1.87692C93.2438 4.78462 88.8687 6.83846 84.2062 7.98462C80.4437 3.05385 75.0812 0 69.2312 0C57.8812 0 48.7437 11.3385 48.7437 25.2385C48.7437 27.2385 48.8812 29.1615 49.2188 30.9923C32.175 29.9692 17.0938 19.9154 6.9625 4.6C5.19375 8.37692 4.15625 12.7 4.15625 17.3538C4.15625 26.0923 7.8125 33.8385 13.2625 38.3231C9.96875 38.2462 6.7375 37.0692 4 35.2154C4 35.2923 4 35.3923 4 35.4923C4 47.7538 11.1062 57.9385 20.425 60.2846C18.7562 60.8461 16.9375 61.1154 15.05 61.1154C13.7375 61.1154 12.4125 61.0231 11.1687 60.6846C13.825 70.6769 21.3625 78.0231 30.325 78.2615C23.35 84.9769 14.4938 89.0231 4.90625 89.0231C3.225 89.0231 1.6125 88.9308 0 88.6769C9.08125 95.8846 19.8438 100 31.45 100C69.175 100 89.8 61.5385 89.8 28.2C89.8 27.0846 89.7688 26.0077 89.725 24.9385C93.7937 21.3846 97.2125 16.9462 100 11.8385Z" fill="#E02395"/>
</svg>
